<svg width="115" height="30" viewBox="0 0 115 30" fill="none" xmlns="http://www.w3.org/2000/svg">
<path d="M24.808 20.5327C24.808 16.6259 23.1151 14.7159 20.2066 13.5872C22.5073 12.4586 23.7662 10.592 23.7662 7.46646C23.7662 2.2139 20.0764 0 14.52 0H3.66756C1.97459 0 0.628906 1.47592 0.628906 3.1689V29.5185H14.0424C20.4237 29.5185 24.808 26.6535 24.808 20.5327ZM17.6889 8.24783C17.6889 10.7222 15.7354 11.4601 13.3479 11.4601H6.576V5.12233H13.2611C15.9959 5.12233 17.6889 5.77348 17.6889 8.24783ZM18.4268 20.3591C18.4268 23.311 16.6036 24.1792 13.6084 24.1792H6.576V16.4522H13.5215C16.647 16.4522 18.4268 17.3204 18.4268 20.3591ZM35.6604 25.2644C33.8372 25.2644 32.8822 24.3962 32.752 22.573C32.752 20.88 33.924 19.7948 36.2247 19.3607C37.9177 19.0134 39.4805 18.5359 40.8262 17.9716V20.0987C40.8262 23.3544 38.8727 25.2644 35.6604 25.2644ZM37.0061 10.9392C39.3936 10.9392 40.6091 11.5904 40.7393 12.8927C40.7393 14.1515 39.4805 14.8895 37.0061 15.1934C31.1892 15.7577 27.1956 17.2336 27.0653 22.7466C27.0653 27.8256 30.8854 30.3867 36.3984 29.9526C42.606 29.5185 46.426 26.6969 46.426 20.3591V12.5454C46.2957 8.29124 43.0835 6.20758 36.7457 6.20758C31.4497 6.20758 28.4544 8.29124 27.7599 12.5454H33.5334C33.8372 11.4601 34.9659 10.9392 37.0061 10.9392ZM49.2042 0V4.5146H54.9777V2.82163C55.0211 0.955014 54.1095 0 52.1995 0H49.2042ZM49.2042 6.55485V29.5185H54.9777V9.33307C54.9777 7.46646 54.0661 6.55485 52.1995 6.55485H49.2042ZM68.0006 11.2865C70.5617 11.2865 71.864 12.4586 71.9942 14.8461V29.5185H77.8111V14.9329C77.8545 12.5454 79.1568 11.3733 81.718 11.3733C84.2792 11.3733 85.5814 12.5454 85.7117 14.9329V26.7403C85.7117 28.5635 86.6667 29.4751 88.5767 29.6054H91.5719V16.105C91.6153 9.55012 88.3596 6.29439 81.8048 6.29439C78.853 6.29439 76.5957 6.90213 74.9461 8.161C73.2965 6.85872 71.0392 6.20758 68.0874 6.20758C61.5325 6.20758 58.2334 9.46329 58.2334 16.0181V29.5185H64.0937V14.8461C64.1371 12.4586 65.4394 11.2865 68.0006 11.2865ZM100.167 21.9653C100.297 24.483 102.12 25.3512 104.942 25.3512C107.373 25.3512 108.588 24.6567 108.588 23.1807C108.588 22.0087 106.592 21.0537 102.641 20.3591C97.5625 19.4475 94.9579 17.1902 94.9145 13.5872C94.9145 8.63851 98.8213 6.2944 104.074 6.20758C107.026 6.20758 109.37 6.85872 111.106 8.161C112.799 9.5067 113.711 11.3733 113.841 13.7609H110.195C108.939 13.7203 108.099 13.3017 107.71 12.5049L107.634 12.3283C107.243 11.3299 106.071 10.7656 104.161 10.7656C101.903 10.7656 100.775 11.3733 100.775 12.5454C100.775 13.6686 102.13 14.5526 104.879 15.121L105.246 15.1934C109.153 15.9747 111.714 16.9732 112.973 18.1452C114.058 19.2739 114.579 20.663 114.579 22.2257C114.579 27.869 110.151 29.9526 104.074 29.9526C101.031 29.9526 98.6887 29.3293 97.1219 28.1194L96.8679 27.9124C95.1315 26.6101 94.2633 24.6132 94.2633 21.9653H100.167Z" fill="#003138"/>
</svg>
