<svg width="145" height="30" viewBox="0 0 145 30" fill="none" xmlns="http://www.w3.org/2000/svg">
<path d="M144.278 20.7528C144.278 23.377 142.116 25.5241 139.473 25.5241C136.83 25.5241 134.668 23.377 134.668 20.7528C134.668 18.1285 136.83 15.9814 139.473 15.9814C142.116 15.9814 144.278 18.1285 144.278 20.7528Z" fill="#003138"/>
<path d="M53.1592 6.44043V10.1382H45.3507V14.1938H51.177V17.832H45.3507V25.5854H40.6055V6.44043H53.1592Z" fill="#003138"/>
<path d="M70.0394 19.0869H59.4078C59.4679 20.0411 59.7682 20.7568 60.3088 21.234C60.8494 21.7111 61.5101 22.0093 62.2909 22.0093C63.4322 22.0093 64.2731 21.5322 64.7536 20.5183H69.7391C69.4988 21.5322 69.0183 22.4268 68.3576 23.2021C67.6969 23.9775 66.8559 24.6335 65.8348 25.1107C64.8137 25.5878 63.6725 25.7667 62.4711 25.7667C60.9695 25.7667 59.6481 25.4685 58.4467 24.8125C57.2454 24.1564 56.3444 23.2618 55.6837 22.0689C55.023 20.8761 54.7227 19.5044 54.7227 17.9537C54.7227 16.3433 55.023 14.9716 55.6837 13.8384C56.3444 12.6456 57.2454 11.7509 58.4467 11.0949C59.588 10.4388 60.9695 10.1406 62.4711 10.1406C63.9728 10.1406 65.2942 10.4388 66.4355 11.0949C67.5767 11.6913 68.4777 12.5859 69.1384 13.7191C69.7992 14.8523 70.0995 16.2241 70.0995 17.7151C70.0995 18.1326 70.0394 18.6097 70.0394 19.0869ZM65.2942 16.4626C65.2942 15.6873 64.9939 15.0312 64.4533 14.5541C63.9127 14.077 63.1919 13.8384 62.4111 13.8384C61.6302 13.8384 60.9695 14.077 60.4289 14.4945C59.8883 14.9716 59.5279 15.568 59.4078 16.403H65.2942V16.4626Z" fill="#003138"/>
<path d="M75.2026 25.1107C74.1814 24.6336 73.3405 24.0372 72.7399 23.2618C72.1392 22.4865 71.7788 21.5919 71.7188 20.578H76.3438C76.4039 21.1147 76.6441 21.5322 77.0646 21.8304C77.4851 22.1286 78.0257 22.3076 78.6864 22.3076C79.287 22.3076 79.7075 22.1883 80.0679 21.9497C80.3682 21.7112 80.5484 21.4129 80.5484 21.0551C80.5484 20.6376 80.3082 20.2798 79.8877 20.1008C79.4072 19.9219 78.6864 19.6833 77.6653 19.3851C76.5841 19.1466 75.623 18.8484 74.9022 18.6098C74.1814 18.3116 73.5207 17.8941 72.9801 17.2977C72.4395 16.7013 72.1993 15.8663 72.1993 14.8524C72.1993 13.9578 72.4395 13.1824 72.9201 12.4667C73.4006 11.751 74.1214 11.1546 75.0824 10.7371C76.0435 10.3196 77.1247 10.0811 78.4461 10.0811C80.3682 10.0811 81.8699 10.5582 83.0111 11.5125C84.0923 12.4667 84.753 13.7192 84.9332 15.2699H80.6085C80.5484 14.7331 80.3082 14.3156 79.8877 14.0174C79.4672 13.7192 78.9867 13.5403 78.326 13.5403C77.7854 13.5403 77.3649 13.6595 77.0646 13.8385C76.7643 14.077 76.6441 14.3156 76.6441 14.6735C76.6441 15.0909 76.8844 15.4488 77.3649 15.6277C77.8455 15.8663 78.5662 16.0452 79.5273 16.2838C80.6686 16.582 81.5695 16.8802 82.2903 17.1188C83.0111 17.417 83.6118 17.8345 84.1524 18.4905C84.693 19.1466 84.9933 19.9816 84.9933 20.9955C84.9933 21.8901 84.753 22.6654 84.2124 23.3811C83.7319 24.0968 83.0111 24.6336 82.0501 25.0511C81.089 25.4686 80.0078 25.6475 78.7464 25.6475C77.4851 25.7668 76.2838 25.5282 75.2026 25.1107Z" fill="#003138"/>
<path d="M96.405 21.5887V25.525H94.0023C92.3205 25.525 90.999 25.1075 90.038 24.2726C89.0769 23.4376 88.5964 22.0658 88.5964 20.2169V14.1931H86.7344V10.3164H88.5964V6.61865H93.2815V10.3164H96.3449V14.1931H93.2815V20.2766C93.2815 20.7537 93.4017 21.0519 93.5819 21.2308C93.8221 21.4098 94.1825 21.529 94.663 21.529H96.405V21.5887Z" fill="#003138"/>
<path d="M106.741 14.1956H104.219V25.5275H99.5334V14.1956H97.8516V10.3189H99.5334V9.90137C99.5334 8.05248 100.074 6.62109 101.155 5.60718C102.236 4.65291 103.798 4.17578 105.9 4.17578C106.261 4.17578 106.501 4.17578 106.681 4.17578V8.11212C105.78 8.05248 105.18 8.17177 104.759 8.46997C104.399 8.76818 104.219 9.30496 104.219 10.1399V10.2592H106.741V14.1956Z" fill="#003138"/>
<path d="M124.038 10.3184V25.527H119.353V23.4395C118.872 24.0956 118.212 24.6323 117.431 25.0498C116.59 25.4673 115.689 25.6462 114.728 25.6462C113.526 25.6462 112.505 25.4077 111.604 24.8709C110.703 24.3341 109.983 23.6184 109.502 22.6045C109.022 21.6503 108.781 20.4574 108.781 19.1453V10.3184H113.466V18.6085C113.466 19.6224 113.707 20.3978 114.247 20.9942C114.788 21.531 115.509 21.8292 116.41 21.8292C117.311 21.8292 118.031 21.531 118.572 20.9942C119.113 20.4574 119.353 19.6224 119.353 18.6085V10.3184H124.038Z" fill="#003138"/>
<path d="M132.146 5.37012H127.461V25.529H132.146V5.37012Z" fill="#003138"/>
<path d="M30.9949 4.29419V9.9005C30.9949 12.2862 29.0728 14.1947 26.6701 14.1947H21.024C18.6213 14.1947 16.6992 12.2862 16.6992 9.9005V4.29419C16.6992 1.90853 18.6213 0 21.024 0H26.6701C29.0127 0 30.9949 1.90853 30.9949 4.29419Z" fill="#003138"/>
<path d="M30.9967 22.8405C30.9967 24.8087 30.2158 26.5979 28.8944 27.91C27.3927 29.4011 25.2304 30.2361 22.8878 29.9379C19.7043 29.5204 17.1215 26.9558 16.701 23.7948C16.4007 21.4688 17.2416 19.3217 18.7433 17.8306C20.0647 16.5185 21.8667 15.7432 23.8489 15.7432C25.831 15.7432 27.633 16.5185 28.9545 17.8306C30.1558 19.0831 30.9967 20.8723 30.9967 22.8405Z" fill="#003138"/>
<path d="M15.1355 4.29419V9.9005C15.1355 12.2862 13.2134 14.1947 10.8108 14.1947H5.16458C2.76195 14.1947 0.839844 12.2862 0.839844 9.9005V4.29419C0.839844 1.90853 2.76195 0 5.16458 0H10.8108C13.2134 0 15.1355 1.90853 15.1355 4.29419Z" fill="#003138"/>
<path d="M15.1355 20.0387V25.645C15.1355 28.0306 13.2134 29.9392 10.8108 29.9392H5.16458C2.76195 29.9392 0.839844 28.0306 0.839844 25.645V20.0387C0.839844 17.653 2.76195 15.7445 5.16458 15.7445H10.8108C13.2134 15.6848 15.1355 17.653 15.1355 20.0387Z" fill="#003138"/>
</svg>
