<svg width="112" height="30" viewBox="0 0 112 30" fill="none" xmlns="http://www.w3.org/2000/svg">
<path fill-rule="evenodd" clip-rule="evenodd" d="M64.7937 22.5037C64.7527 22.7882 64.6617 23.0356 64.5314 23.2547C64.3976 23.4739 64.2031 23.6471 63.9497 23.7778C63.6981 23.9051 63.3591 23.9722 62.9379 23.9722C62.4972 23.9722 62.151 23.9121 61.8959 23.7937C61.6389 23.6718 61.4462 23.5074 61.3195 23.2954C61.191 23.0833 61.109 22.8359 61.0733 22.5514C61.0376 22.2669 61.0197 21.9629 61.0197 21.6377C61.0197 21.3444 61.0394 21.0546 61.0822 20.7771C61.125 20.4961 61.2107 20.2434 61.3445 20.0261C61.4783 19.8016 61.6728 19.6249 61.9244 19.4888C62.176 19.3581 62.5115 19.2874 62.9379 19.2874C63.3769 19.2874 63.7231 19.3492 63.9782 19.4729C64.2334 19.5966 64.4261 19.768 64.5546 19.9819C64.6831 20.1975 64.7652 20.4467 64.8008 20.7329C64.8365 21.0157 64.8544 21.3214 64.8544 21.6448C64.8544 21.9399 64.833 22.2262 64.7937 22.5037ZM62.5382 22.334C62.5472 22.5125 62.5721 22.6539 62.606 22.7617C62.6382 22.8642 62.6828 22.9366 62.7327 22.9737C62.7863 23.0126 62.8541 23.0321 62.9379 23.0321C63.02 23.0321 63.0878 23.0126 63.1449 22.9737C63.202 22.9366 63.2449 22.8642 63.2734 22.7617C63.3037 22.6557 63.3252 22.5143 63.3359 22.334C63.3466 22.1573 63.3537 21.9276 63.3537 21.6466C63.3537 21.3656 63.3484 21.1341 63.3359 20.9556C63.3252 20.7718 63.3037 20.6287 63.2734 20.5244C63.2431 20.4201 63.2002 20.3495 63.1449 20.3106C63.0878 20.2735 63.0218 20.254 62.9379 20.254C62.8559 20.254 62.7863 20.2735 62.7327 20.3106C62.681 20.3495 62.6364 20.4201 62.606 20.5244C62.5721 20.6287 62.5489 20.7718 62.5382 20.9556C62.5258 21.1341 62.5222 21.3656 62.5222 21.6466C62.5222 21.9276 62.5275 22.1573 62.5382 22.334ZM51.5393 22.4807C51.5393 22.721 51.5803 22.8836 51.6624 22.9649C51.7463 23.0444 51.8409 23.0833 51.9444 23.0833C52.0746 23.0833 52.1799 23.0285 52.2566 22.9207C52.3316 22.8147 52.3673 22.6079 52.3673 22.304H53.7252C53.7145 22.8571 53.5717 23.2706 53.3005 23.5534C53.0275 23.8291 52.5796 23.9705 51.9551 23.9705C51.5928 23.9705 51.2895 23.928 51.045 23.8503C50.7988 23.7708 50.6025 23.6365 50.4526 23.4527C50.3027 23.2689 50.1939 23.0268 50.1314 22.7263C50.069 22.4295 50.0351 22.0707 50.0351 21.643C50.0351 21.2118 50.0708 20.8513 50.1439 20.5527C50.2171 20.2523 50.3277 20.0119 50.4865 19.8228C50.64 19.6373 50.8398 19.4977 51.0825 19.4164C51.3234 19.328 51.6142 19.2856 51.9551 19.2856C52.2548 19.2856 52.5189 19.3209 52.7455 19.3934C52.9686 19.4659 53.1595 19.586 53.3112 19.7539C53.4647 19.9218 53.5788 20.1427 53.6538 20.4201C53.727 20.6905 53.7662 21.0316 53.7662 21.4398V21.8958H51.5411V22.4807H51.5393ZM52.2691 20.3671C52.212 20.2558 52.1032 20.201 51.9426 20.201C51.7891 20.201 51.682 20.2558 51.6249 20.3671C51.5661 20.4767 51.5393 20.6516 51.5393 20.8885V21.0881H52.3548V20.8885C52.3548 20.6516 52.3262 20.4767 52.2691 20.3671ZM39.7606 23.6382L39.7267 23.3731C39.6285 23.5746 39.4947 23.7195 39.3163 23.822C39.1343 23.921 38.9291 23.9722 38.6971 23.9722C38.4705 23.9722 38.2742 23.9404 38.119 23.8839C37.9601 23.8238 37.8299 23.7389 37.7335 23.6241C37.6318 23.5074 37.5604 23.3714 37.5158 23.2123C37.4748 23.0515 37.4498 22.8748 37.4498 22.6822C37.4498 22.4736 37.473 22.2898 37.5123 22.1361C37.5533 21.9823 37.6211 21.8498 37.7157 21.7349C37.812 21.6218 37.9387 21.5264 38.0993 21.4487C38.2599 21.3656 38.4598 21.3002 38.6989 21.2437L39.2895 21.1041C39.4501 21.0652 39.5643 21.0086 39.6303 20.9362C39.6981 20.8637 39.7285 20.7541 39.7285 20.6163C39.7285 20.3424 39.6018 20.2045 39.3466 20.2045C39.2039 20.2045 39.0986 20.2434 39.0326 20.3229C38.9647 20.3989 38.9308 20.558 38.9237 20.7913H37.6193C37.6193 20.4679 37.6782 20.2081 37.796 20.0137C37.912 19.8175 38.0583 19.6673 38.2314 19.5595C38.4009 19.45 38.5882 19.3793 38.7899 19.3457C38.9915 19.3086 39.1771 19.2909 39.3484 19.2909C39.6107 19.2909 39.8498 19.3103 40.0728 19.3528C40.2923 19.3934 40.4815 19.4676 40.6421 19.5754C40.8009 19.6832 40.9222 19.8299 41.0079 20.0137C41.0935 20.1992 41.1381 20.436 41.1381 20.7294V22.9154C41.1381 23.124 41.147 23.3095 41.1631 23.4703C41.181 23.6294 41.2184 23.7672 41.2809 23.8839H39.8213C39.7927 23.8043 39.7731 23.7195 39.7606 23.6382ZM39.6178 22.8094C39.691 22.6892 39.7267 22.5037 39.7267 22.258V21.7208C39.6678 21.7809 39.5982 21.8198 39.509 21.8304C39.418 21.8463 39.3163 21.8781 39.2039 21.9276C39.0879 21.9823 39.0094 22.0548 38.963 22.1467C38.9201 22.2368 38.8987 22.3605 38.8987 22.5054C38.8987 22.6539 38.9326 22.7741 39.0004 22.8624C39.0647 22.9508 39.1539 22.995 39.2663 22.995C39.4287 22.9932 39.5465 22.9331 39.6178 22.8094ZM32.6605 23.8803H31.1581V19.404H32.6605V23.8803ZM32.6605 19.0771H31.1581V17.969H32.6605V19.0771ZM21.6883 23.8803H20.1859V19.404H21.6883V23.8803ZM21.6883 19.0771H20.1859V17.969H21.6883V19.0771ZM53.0507 6.10582C53.0507 5.67992 53.3826 5.33532 53.7894 5.33532C54.1998 5.33532 54.5299 5.67992 54.5299 6.10582C54.5299 6.53171 54.198 6.87632 53.7894 6.87632C53.3826 6.87808 53.0507 6.53171 53.0507 6.10582ZM54.7637 6.10582C54.7637 5.67992 55.0938 5.33532 55.5042 5.33532C55.9128 5.33532 56.2429 5.67992 56.2429 6.10582C56.2429 6.53171 55.911 6.87632 55.5042 6.87632C55.0938 6.87808 54.7637 6.53171 54.7637 6.10582ZM65.9768 6.10582C65.9768 5.67992 66.3069 5.33532 66.7155 5.33532C67.1241 5.33532 67.456 5.67992 67.456 6.10582C67.456 6.53171 67.1241 6.87632 66.7155 6.87632C66.3069 6.87808 65.9768 6.53171 65.9768 6.10582ZM67.6915 6.10582C67.6915 5.67992 68.0199 5.33532 68.4321 5.33532C68.8389 5.33532 69.1708 5.67992 69.1708 6.10582C69.1708 6.53171 68.8389 6.87632 68.4321 6.87632C68.0199 6.87808 67.6915 6.53171 67.6915 6.10582ZM75.6856 13.9204C75.6856 13.4927 76.0157 13.1516 76.4243 13.1516C76.8312 13.1516 77.1648 13.4945 77.1648 13.9204C77.1648 14.3498 76.8312 14.6944 76.4243 14.6944C76.0139 14.6926 75.6856 14.348 75.6856 13.9204ZM70.857 13.9204C70.857 13.4927 71.1872 13.1516 71.5958 13.1516C72.0044 13.1516 72.3345 13.4945 72.3345 13.9204C72.3345 14.3498 72.0044 14.6944 71.5958 14.6944C71.1889 14.6926 70.857 14.348 70.857 13.9204ZM72.6628 13.9204C72.6628 13.4927 72.9929 13.1516 73.4016 13.1516C73.8084 13.1516 74.1403 13.4945 74.1403 13.9204C74.1403 14.3498 73.8084 14.6944 73.4016 14.6944C72.9929 14.6926 72.6628 14.348 72.6628 13.9204ZM38.6917 13.9204C38.6917 13.4927 39.0236 13.1516 39.4305 13.1516C39.8409 13.1516 40.1728 13.4945 40.1728 13.9204C40.1728 14.3498 39.8391 14.6944 39.4305 14.6944C39.0236 14.6926 38.6917 14.348 38.6917 13.9204ZM40.4101 13.9204C40.4101 13.4927 40.742 13.1516 41.1488 13.1516C41.5592 13.1516 41.8911 13.4945 41.8911 13.9204C41.8911 14.3498 41.5592 14.6944 41.1488 14.6944C40.742 14.6926 40.4101 14.348 40.4101 13.9204ZM8.57134 13.9204C8.57134 13.4927 8.90145 13.1516 9.31007 13.1516C9.7187 13.1516 10.0488 13.4945 10.0488 13.9204C10.0488 14.3498 9.7187 14.6944 9.31007 14.6944C8.90145 14.6926 8.57134 14.348 8.57134 13.9204ZM10.2843 13.9204C10.2843 13.4927 10.6162 13.1516 11.0267 13.1516C11.4335 13.1516 11.7636 13.4945 11.7636 13.9204C11.7636 14.3498 11.4335 14.6944 11.0267 14.6944C10.6162 14.6926 10.2843 14.348 10.2843 13.9204ZM4.51543 6.07931C4.51543 5.65341 4.84733 5.30881 5.25595 5.30881C5.66458 5.30881 5.99469 5.65518 5.99469 6.07931C5.99469 6.50697 5.66458 6.84981 5.25595 6.84981C4.84554 6.84981 4.51543 6.50697 4.51543 6.07931ZM6.23201 6.07931C6.23201 5.65341 6.56212 5.30881 6.97075 5.30881C7.37937 5.30881 7.71127 5.65518 7.71127 6.07931C7.71127 6.50697 7.37937 6.84981 6.97075 6.84981C6.56212 6.84981 6.23201 6.50697 6.23201 6.07931ZM1.33388 13.9204C1.33388 13.4927 1.66399 13.1516 2.07261 13.1516C2.48124 13.1516 2.81492 13.4945 2.81492 13.9204C2.81492 14.3498 2.48124 14.6944 2.07261 14.6944C1.66577 14.6926 1.33388 14.348 1.33388 13.9204ZM3.04867 13.9204C3.04867 13.4927 3.38057 13.1516 3.78562 13.1516C4.19781 13.1516 4.52792 13.4945 4.52792 13.9204C4.52792 14.3498 4.19781 14.6944 3.78562 14.6944C3.38057 14.6926 3.04867 14.348 3.04867 13.9204ZM11.76 8.1381V12.4306H6.31588V9.59957H4.89015V12.4306H0.816406V8.09215H2.48481V10.8101H3.57328L3.58934 8.04974L7.78264 8.0462V10.9621H10.3325V8.1381H11.76ZM14.4527 9.50414H15.5911V10.9586H14.4527V9.50414ZM28.7456 6.12172V12.4306H17.0257C17.0257 12.4306 16.8009 13.8409 15.9997 14.3233C15.2699 14.7545 13.7353 14.6149 13.7353 14.6149C13.7353 14.6149 14.8649 14.0264 15.2253 13.5528C15.584 13.0774 15.5251 12.4306 15.5251 12.4306H13.0234V8.18228H17.0097V10.9586H24.6379V9.48294H19.515C19.515 9.48294 18.5603 9.42639 18.5603 8.42085C18.5603 7.41531 19.3347 7.00179 19.3347 7.00179L21.6009 5.17627H24.2204L20.6498 8.00733H24.8182C24.8182 8.00733 26.0083 8.12219 26.0672 9.00756C26.1243 9.89116 26.0672 10.9586 26.0672 10.9586H27.4376V6.12172H28.7456ZM30.0535 6.12172H31.4275V12.4306H30.0535V6.12172ZM41.9661 8.18228V12.4289H38.3349C38.3349 12.4289 37.7389 14.523 35.892 14.553C32.3215 14.6131 33.8114 9.89293 33.8114 9.89293C33.8114 9.89293 33.583 12.602 35.3567 12.6109C37.266 12.6162 36.9645 10.9586 36.9645 10.9586V6.18004H38.3955V10.9603H40.4779V8.18228H41.9661ZM49.9494 9.59957H51.3234V10.9603H49.9494V9.59957ZM44.5285 9.59957H45.84V10.9603H44.5285V9.59957ZM57.5134 6.10582H58.8214V12.4306H47.1497C47.1497 12.4306 47.0319 13.9115 45.8382 14.3799C44.6462 14.8499 43.7522 14.3799 43.7522 14.3799C43.7522 14.3799 44.5249 14.3215 45.2422 13.6094C45.956 12.9042 45.6598 12.4306 45.6598 12.4306H43.2169V8.12396H47.1497V10.9603H48.5201V8.18228H52.7473V10.9586H54.5924V8.18228H56.0806V10.9586H57.5134V6.10582V6.10582ZM60.0169 6.12172H61.3873V12.4306H60.0169V6.12172ZM77.2309 8.12396V12.4306H63.7677V8.18228H66.5067V9.30445H65.3754V10.9586H69.8453V8.12396H71.1532V10.9603H72.8216V8.12396H74.1938V10.9603H75.8016V8.12396H77.2309ZM75.6392 20.3671C75.5803 20.2558 75.4715 20.201 75.3126 20.201C75.1592 20.201 75.0539 20.2558 74.995 20.3671C74.9397 20.4767 74.9094 20.6516 74.9094 20.8885V21.0881H75.7248V20.8885C75.7248 20.6516 75.6963 20.4767 75.6392 20.3671ZM74.9094 22.4807C74.9094 22.721 74.9504 22.8836 75.0325 22.9649C75.1182 23.0444 75.2109 23.0833 75.3162 23.0833C75.45 23.0833 75.5518 23.0285 75.6267 22.9207C75.6999 22.8147 75.7391 22.6079 75.7391 22.304H77.0935C77.0828 22.8571 76.9418 23.2706 76.6706 23.5534C76.3976 23.8291 75.9497 23.9705 75.3251 23.9705C74.9647 23.9705 74.6596 23.928 74.4169 23.8503C74.1724 23.7708 73.9761 23.6365 73.8245 23.4527C73.6764 23.2689 73.5657 23.0268 73.5051 22.7263C73.439 22.4295 73.4069 22.0707 73.4069 21.643C73.4069 21.2118 73.4444 20.8513 73.514 20.5527C73.5854 20.2523 73.6996 20.0119 73.8566 19.8228C74.0136 19.6373 74.2117 19.4977 74.4544 19.4164C74.6952 19.328 74.9861 19.2856 75.3251 19.2856C75.6267 19.2856 75.8872 19.3209 76.1156 19.3934C76.3404 19.4659 76.5278 19.586 76.6831 19.7539C76.8347 19.9218 76.9489 20.1427 77.0257 20.4201C77.0988 20.6905 77.1363 21.0316 77.1363 21.4398V21.8958H74.9094V22.4807ZM70.8553 22.7458C70.8713 22.8218 70.8999 22.8854 70.9391 22.9366C71.0105 23.0427 71.1176 23.0922 71.2567 23.0922C71.3709 23.0922 71.4727 23.0603 71.5583 22.995C71.6422 22.9296 71.6868 22.8341 71.6868 22.7122C71.6868 22.5814 71.6315 22.4772 71.5244 22.4065C71.4138 22.3358 71.2817 22.2722 71.1193 22.2174L70.6001 22.0424C70.4127 21.9823 70.2414 21.8975 70.0808 21.795C69.9185 21.6872 69.7846 21.5494 69.6793 21.3762C69.5687 21.2012 69.5134 20.9733 69.5134 20.6923C69.5134 20.4908 69.5509 20.3106 69.6205 20.1392C69.6936 19.9713 69.8025 19.8246 69.9541 19.6974C70.1005 19.5701 70.286 19.4694 70.5127 19.3969C70.7375 19.3245 71.0016 19.2891 71.3103 19.2891C72.4416 19.2891 73.0054 19.7592 73.0054 20.6976H71.7011C71.7011 20.505 71.6672 20.3742 71.5976 20.3053C71.5298 20.2381 71.4316 20.2045 71.3067 20.2045C71.1943 20.2045 71.1051 20.2346 71.0337 20.2964C70.9623 20.3565 70.9266 20.4396 70.9266 20.5527C70.9266 20.6782 70.9784 20.7754 71.089 20.8372C71.1961 20.9008 71.3317 20.9574 71.4923 21.0051L72.0133 21.1641C72.1989 21.2189 72.3738 21.2984 72.5344 21.3992C72.695 21.4999 72.8306 21.6395 72.9358 21.8127C73.0447 21.9859 73.1 22.2156 73.1 22.5019C73.1 22.7228 73.0572 22.926 72.9733 23.1081C72.8912 23.2865 72.7735 23.4474 72.6182 23.5781C72.4648 23.7107 72.2756 23.8096 72.049 23.875C71.8224 23.9404 71.569 23.974 71.2835 23.974C70.6554 23.974 70.2022 23.8503 69.9274 23.6011C69.6508 23.3572 69.5134 22.9879 69.5134 22.4984H70.8285C70.8285 22.5867 70.8374 22.668 70.8553 22.7458ZM66.8297 19.404V22.3623C66.8297 22.5496 66.8582 22.6839 66.9153 22.7652C66.9689 22.8483 67.0634 22.8907 67.1991 22.8907C67.3329 22.8907 67.4275 22.8465 67.4846 22.7652C67.5399 22.6839 67.5684 22.5496 67.5684 22.3623V19.404H69.0709V23.8803H67.6202L67.6166 23.3325C67.4185 23.7566 67.051 23.9722 66.5067 23.9722C66.3408 23.9722 66.1837 23.9545 66.041 23.9245C65.9 23.8962 65.7769 23.8344 65.6698 23.7442C65.5646 23.6541 65.4789 23.5304 65.42 23.3714C65.3594 23.2141 65.3254 23.0179 65.3254 22.7811V19.404H66.8297ZM57.9791 17.969V20.148H58.9284V17.969H60.4808V23.8803H58.9284V21.4557H57.9791V23.8803H56.4232V17.969H57.9791V17.969ZM48.3667 20.7188C48.3488 20.6057 48.3238 20.5138 48.2899 20.4413C48.2293 20.3159 48.1186 20.2523 47.9598 20.2523C47.8777 20.2523 47.8064 20.2717 47.7493 20.3141C47.6904 20.3548 47.6476 20.4272 47.6119 20.535C47.578 20.6428 47.5566 20.786 47.5423 20.9644C47.5298 21.1429 47.5227 21.3691 47.5227 21.6448C47.5227 21.9205 47.5316 22.1467 47.5423 22.3252C47.5583 22.5019 47.578 22.6433 47.6119 22.7493C47.6493 22.8536 47.6904 22.9278 47.7493 22.9684C47.8064 23.0109 47.8777 23.0285 47.9598 23.0285C48.099 23.0285 48.2043 22.9773 48.2792 22.8713C48.3542 22.7652 48.3916 22.5726 48.3916 22.2934V22.0036H49.7478C49.7478 22.3588 49.7174 22.6592 49.6568 22.9084C49.5961 23.1558 49.4908 23.3572 49.3481 23.5198C49.0644 23.8202 48.604 23.9705 47.9652 23.9705C47.6743 23.9705 47.4102 23.9457 47.1711 23.8962C46.9338 23.8467 46.7268 23.7389 46.5573 23.5764C46.386 23.4138 46.2557 23.184 46.1612 22.8907C46.0684 22.5938 46.0202 22.205 46.0202 21.719C46.0202 21.1906 46.0719 20.7647 46.179 20.4431C46.2843 20.1233 46.4253 19.8794 46.609 19.708C46.7911 19.5348 47.0016 19.4252 47.2479 19.3687C47.4923 19.3121 47.7564 19.2856 48.0383 19.2856C48.372 19.2856 48.6486 19.3315 48.8681 19.4252C49.0893 19.5153 49.266 19.6426 49.3963 19.8052C49.5265 19.9695 49.6193 20.1639 49.6711 20.3936C49.7246 20.6234 49.7513 20.8778 49.7513 21.1588H48.3952C48.3916 20.9803 48.3827 20.8337 48.3667 20.7188ZM43.2598 19.404V19.9501C43.4667 19.5083 43.8325 19.2874 44.3679 19.2874C44.5356 19.2874 44.6891 19.305 44.8354 19.3422C44.9781 19.3757 45.1012 19.4429 45.2083 19.5365C45.3136 19.632 45.3992 19.7557 45.4581 19.9094C45.5206 20.0632 45.5527 20.2629 45.5527 20.505V23.8803H44.0485V20.9256C44.0485 20.7382 44.0217 20.6022 43.9664 20.5209C43.9093 20.4343 43.8129 20.3936 43.6773 20.3936C43.5453 20.3936 43.4507 20.4343 43.3936 20.5209C43.3365 20.6022 43.3115 20.7382 43.3115 20.9256V23.8803H41.8073V19.404H43.2598ZM34.7411 19.404V19.9501C34.9481 19.5083 35.3139 19.2874 35.8474 19.2874C36.0152 19.2874 36.1704 19.305 36.3132 19.3422C36.4559 19.3757 36.579 19.4429 36.6861 19.5365C36.7914 19.632 36.8734 19.7557 36.9359 19.9094C36.9966 20.0632 37.0305 20.2629 37.0305 20.505V23.8803H35.528V20.9256C35.528 20.7382 35.4995 20.6022 35.4442 20.5209C35.3871 20.4343 35.2943 20.3936 35.1569 20.3936C35.0248 20.3936 34.9303 20.4343 34.8732 20.5209C34.8178 20.6022 34.7911 20.7382 34.7911 20.9256V23.8803H33.2886V19.404H34.7411ZM30.7155 17.969V19.222H28.7349V20.2381H30.5906V21.454H28.7349V23.8786H27.1825V17.9673H30.7155V17.969ZM22.5252 19.404V18.0892H24.0277V19.404H24.6219V20.4095H24.0277V22.5408C24.0277 22.668 24.058 22.7581 24.1151 22.8076C24.174 22.8606 24.2632 22.8889 24.3881 22.8889H24.6219V23.8803C24.4809 23.8803 24.3417 23.8839 24.2043 23.8927C24.0651 23.8998 23.9313 23.9051 23.8028 23.9051C23.5762 23.9051 23.3817 23.898 23.2193 23.8768C23.057 23.8573 22.9267 23.8079 22.8232 23.7319C22.7197 23.6559 22.6466 23.5393 22.5984 23.389C22.552 23.2388 22.527 23.0374 22.527 22.79V20.4095H22.0256V19.404H22.5252V19.404ZM10.9535 19.404L11.33 22.6238L11.7868 19.404H13.3892L13.8335 22.6238L14.2261 19.404H15.6785L14.7632 23.8803H13.0573L12.5987 20.71L12.1223 23.8803H10.4164L9.49743 19.404H10.9535ZM6.96004 19.404V22.3623C6.96004 22.5496 6.98681 22.6839 7.04569 22.7652C7.10279 22.8483 7.19558 22.8907 7.33119 22.8907C7.46324 22.8907 7.55959 22.8465 7.61312 22.7652C7.67022 22.6839 7.69877 22.5496 7.69877 22.3623V19.404H9.19944V23.8803H7.75052L7.74874 23.3325C7.55067 23.7566 7.18487 23.9722 6.64063 23.9722C6.4729 23.9722 6.31766 23.9545 6.17848 23.9245C6.03038 23.8962 5.90904 23.8344 5.80376 23.7442C5.69491 23.6541 5.61105 23.5304 5.54859 23.3714C5.48792 23.2141 5.4558 23.0179 5.4558 22.7811V19.404H6.96004ZM2.36882 17.969V20.2381L3.53938 17.969H5.19172L3.68748 20.5527L5.37551 23.8803H3.60718L2.69536 21.818L2.36882 22.3146V23.8803H0.816406V17.969H2.36882V17.969ZM18.1107 23.6382L18.075 23.3731C17.975 23.5746 17.8448 23.7195 17.6646 23.822C17.4826 23.921 17.2756 23.9722 17.0454 23.9722C16.817 23.9722 16.6243 23.9404 16.4672 23.8839C16.3066 23.8238 16.18 23.7389 16.08 23.6241C15.9801 23.5074 15.9087 23.3714 15.8641 23.2123C15.8177 23.0515 15.7945 22.8748 15.7945 22.6822C15.7945 22.4736 15.8177 22.2898 15.8588 22.1361C15.898 21.9823 15.9676 21.8498 16.0622 21.7349C16.1568 21.6218 16.2834 21.5264 16.444 21.4487C16.6064 21.3656 16.8063 21.3002 17.0436 21.2437L17.6342 21.1041C17.7966 21.0652 17.909 21.0086 17.9733 20.9362C18.0411 20.8637 18.0732 20.7541 18.0732 20.6163C18.0732 20.3424 17.9483 20.2045 17.6949 20.2045C17.5521 20.2045 17.4451 20.2434 17.3791 20.3229C17.313 20.3989 17.2756 20.558 17.272 20.7913H15.9658C15.9658 20.4679 16.0247 20.2081 16.1425 20.0137C16.2585 19.8175 16.403 19.6673 16.5761 19.5595C16.7492 19.45 16.9347 19.3793 17.1364 19.3457C17.3344 19.3086 17.5236 19.2909 17.6967 19.2909C17.9572 19.2909 18.1999 19.3103 18.4176 19.3528C18.6388 19.3934 18.8298 19.4676 18.9886 19.5754C19.1456 19.6832 19.2687 19.8299 19.3544 20.0137C19.4418 20.1992 19.4828 20.436 19.4828 20.7294V22.9154C19.4828 23.124 19.4918 23.3095 19.5096 23.4703C19.5257 23.6294 19.5649 23.7672 19.6256 23.8839H18.1642C18.1428 23.8043 18.1214 23.7195 18.1107 23.6382ZM17.9679 22.8094C18.0428 22.6892 18.075 22.5037 18.075 22.258V21.7208C18.0161 21.7809 17.9483 21.8198 17.8573 21.8304C17.7663 21.8463 17.6646 21.8781 17.5539 21.9276C17.4379 21.9823 17.3559 22.0548 17.313 22.1467C17.2666 22.2368 17.247 22.3605 17.247 22.5054C17.247 22.6539 17.2809 22.7741 17.3469 22.8624C17.4147 22.9508 17.5004 22.995 17.6128 22.995C17.7805 22.9932 17.8965 22.9331 17.9679 22.8094Z" fill="#003138"/>
<path fill-rule="evenodd" clip-rule="evenodd" d="M84.7448 0H108.816C110.536 0 111.93 1.38018 111.93 3.082V26.9198C111.93 28.6198 110.536 30 108.816 30H84.7448C83.0264 30 81.6328 28.6198 81.6328 26.9198V3.082C81.6328 1.38018 83.0264 0 84.7448 0Z" fill="#003138"/>
<path fill-rule="evenodd" clip-rule="evenodd" d="M92.4805 11.1833H92.6892V11.581H93.6314V11.1763H93.8545V12.0122H93.6243V11.7771H92.6785V12.0122H92.4805V11.1833Z" fill="white"/>
<path fill-rule="evenodd" clip-rule="evenodd" d="M92.0547 12.0074V10.5088C92.0547 10.5088 92.11 10.3516 92.2474 10.3516H93.8569V10.5937H92.2795V10.8817H93.8569V11.1203H92.2795V12.0074H92.0547Z" fill="white"/>
<path fill-rule="evenodd" clip-rule="evenodd" d="M91.4375 9.98796H91.7194L91.7052 10.223C91.7052 10.223 91.8283 9.97559 91.9229 9.97559H93.8518V10.1788L91.9817 10.177C91.9817 10.177 91.7587 10.6365 91.7408 11.1596C91.7194 11.9071 91.9336 12.1457 91.9336 12.1457H93.8732L93.8625 12.3878H91.9104C91.9104 12.3878 91.814 12.3631 91.7426 12.1722V12.3489H91.4375V9.98796V9.98796Z" fill="white"/>
<path fill-rule="evenodd" clip-rule="evenodd" d="M100.142 10.0613V18.2647H91.4375V20.0266H102.135V10.0596H100.142V10.0613ZM101.225 11.2436C101.225 11.2436 101.13 11.3019 101.105 11.461C101.084 11.62 101.212 11.7278 101.212 11.7278C101.212 11.7278 100.989 11.6695 100.989 11.4716C100.989 11.2736 101.225 11.2436 101.225 11.2436ZM100.85 12.2686C100.85 12.2686 100.873 11.9823 101.164 11.9823C101.453 11.9823 101.426 12.2421 101.426 12.2421V12.7864H100.85V12.2686ZM99.5725 18.3548C99.5725 18.3548 99.4797 18.4149 99.4547 18.5739C99.4315 18.733 99.5618 18.8426 99.5618 18.8426C99.5618 18.8426 99.337 18.7825 99.337 18.5863C99.337 18.3902 99.5725 18.3548 99.5725 18.3548ZM95.6326 18.9221H94.8278V19.3462H95.5951V19.6042H93.3129V19.3356H94.4674V18.7012H95.6326V18.9221ZM98.2182 19.6466C98.2182 19.6466 98.6732 19.0599 99.3602 19.0599C100.049 19.0599 100.574 19.6254 100.574 19.6254L98.2182 19.6466ZM101.426 19.6413H100.798V16.2395H101.426V19.6413ZM101.635 16.008H100.586V15.4089H101.635V16.008ZM100.798 15.2516V13.7654H101.426V15.2516H100.798ZM101.635 13.5392H100.586V12.9419H101.635V13.5392Z" fill="white"/>
<path fill-rule="evenodd" clip-rule="evenodd" d="M97.5187 10.0615V15.5646H91.4375V17.4361H99.4601V10.0615H97.5187ZM94.1783 16.8882H93.3521V16.0965H94.1783V16.8882ZM95.4898 16.8882H94.6601V16.0965H95.4898V16.8882ZM98.2128 12.0408C98.2735 11.8323 98.4162 11.6255 98.4162 11.6255C98.4162 11.6255 98.4287 11.7386 98.5019 11.9542C98.5732 12.1716 99.0639 12.578 99.0515 12.958C99.039 13.428 98.7196 13.6295 98.4573 13.6295C98.0558 13.6295 97.8256 13.3768 97.7649 13.0569C97.6793 12.6134 98.1557 12.2422 98.2128 12.0408ZM97.7792 17.0667L98.0968 13.7885H98.7909L99.0943 17.0667H97.7792Z" fill="white"/>
<path fill-rule="evenodd" clip-rule="evenodd" d="M94.8457 10.0615V12.9686H91.4375V14.734H96.7318V10.0615H94.8457ZM95.3596 12.6222C95.447 12.3306 95.6486 12.1521 95.6486 12.1521C95.6486 12.1521 95.6397 12.3218 95.6683 12.4313C95.6933 12.5409 95.8164 12.6911 95.8164 12.6911C95.8164 12.6911 95.877 12.4773 95.9698 12.35C96.0608 12.221 96.1625 12.1309 96.1625 12.1309C96.1625 12.1309 96.0822 12.555 96.1179 12.7353C96.1572 12.9173 96.2286 13.1471 96.2286 13.1471L95.2811 13.1347C95.2793 13.1329 95.2721 12.912 95.3596 12.6222ZM94.1783 14.294H93.3521V13.5005H94.1783V14.294ZM95.1026 14.0572C95.1026 14.0572 94.9206 13.9034 94.8475 13.8115C94.7743 13.7196 94.7261 13.6065 94.7261 13.6065H96.3035C96.3035 13.6065 96.2625 13.7939 96.0822 13.8115C95.8985 13.831 95.7396 13.6489 95.4577 13.7585C95.1776 13.8681 95.1026 14.0572 95.1026 14.0572ZM95.952 14.3735C95.8039 14.3806 95.6933 14.2834 95.5951 14.2922C95.4934 14.3028 95.4167 14.3258 95.4167 14.3258C95.4167 14.3258 95.4649 14.1915 95.6576 14.1915C95.8503 14.1915 95.8681 14.271 95.9877 14.2622C96.1072 14.2551 96.2089 14.1915 96.2089 14.1915C96.2089 14.1915 96.0983 14.3629 95.952 14.3735ZM95.9788 14.1208C95.7611 14.1491 95.6915 14.0095 95.513 14.0466C95.3328 14.0837 95.2793 14.1561 95.2793 14.1561C95.2793 14.1561 95.3292 13.9299 95.5594 13.9299C95.786 13.9299 95.8235 14.0201 96.0162 13.9847C96.2089 13.9476 96.3303 13.8946 96.3303 13.8946C96.3303 13.8946 96.2 14.0943 95.9788 14.1208Z" fill="white"/>
<path d="M105.341 7.37837C105.341 6.90653 104.954 6.52305 104.478 6.52305H103.905L102.383 5.01562H104.478C105.793 5.01562 106.862 6.07595 106.862 7.37837V15.5923L105.34 17.0997V7.37837H105.341Z" fill="white"/>
<path d="M96.1822 24.986L94.6602 23.4785H104.476C104.952 23.4785 105.34 23.0951 105.34 22.625V22.0577L106.862 20.5503V22.625C106.862 23.9274 105.793 24.986 104.478 24.986H96.1822Z" fill="white"/>
<path d="M89.0849 24.986C87.7699 24.986 86.6992 23.9274 86.6992 22.625V14.4093L88.2213 12.9019V22.6232C88.2213 23.0951 88.6085 23.4768 89.0849 23.4768H89.6577L91.1798 24.9842H89.0849V24.986Z" fill="white"/>
<path d="M86.6992 7.37837C86.6992 6.07595 87.7698 5.01562 89.0849 5.01562H97.3788L98.9009 6.52305H89.0849C88.6085 6.52305 88.2213 6.90653 88.2213 7.37837V7.94388L86.6992 9.4513V7.37837V7.37837Z" fill="white"/>
<path d="M96.782 28.1435C96.1432 28.1435 95.5454 27.8979 95.0957 27.4508L89.2305 21.642V19.5107L96.1717 26.3852C96.327 26.5389 96.55 26.629 96.782 26.629C97.014 26.629 97.2352 26.5407 97.3922 26.3852L97.7973 25.984H99.9475L98.4664 27.4508C98.0168 27.8979 97.419 28.1435 96.782 28.1435Z" fill="white"/>
<path d="M97.3908 3.61597C97.2284 3.45516 97.0107 3.36503 96.7806 3.36503C96.5504 3.36503 96.3327 3.45339 96.1703 3.61597L95.7652 4.01713H93.6133L95.0943 2.55035C95.544 2.10502 96.1435 1.85938 96.7806 1.85938C97.4176 1.85938 98.0171 2.10502 98.4668 2.55035L104.332 8.35914V10.4922L97.3908 3.61597Z" fill="white"/>
<path d="M101.336 22.4784L108.277 15.604C108.613 15.27 108.613 14.7292 108.277 14.3952L107.872 13.994V11.8628L109.353 13.3296C110.283 14.2503 110.283 15.7489 109.353 16.6713L103.49 22.4784H101.336V22.4784Z" fill="white"/>
<path d="M84.2094 16.67C83.7597 16.2246 83.5117 15.6326 83.5117 15C83.5117 14.3691 83.7597 13.7753 84.2094 13.33L90.0729 7.52295H92.2266L85.2854 14.3974C84.9481 14.7314 84.9481 15.2721 85.2854 15.6061L85.6904 16.0073V18.1385L84.2094 16.67Z" fill="white"/>
</svg>
