<svg width="197" height="30" viewBox="0 0 197 30" fill="none" xmlns="http://www.w3.org/2000/svg">
<path d="M111.891 25.4395H54.6406L59.201 29.9999L111.891 25.4395Z" fill="#003138"/>
<path d="M59.9417 6.99167V7.67886C58.9719 6.98813 57.8124 6.61408 56.6218 6.60791C52.6058 6.60791 49.5625 10.267 49.5625 14.7561C49.5625 19.2451 52.6058 22.9042 56.6218 22.9042C57.8124 22.898 58.9719 22.524 59.9417 21.8332V22.5294H63.4668V6.99167H59.9417ZM56.6218 19.1648C54.6405 19.1648 53.1948 17.2192 53.1948 14.7561C53.1948 12.2929 54.6405 10.3562 56.6218 10.3562C58.603 10.3562 59.9952 12.3018 59.9952 14.7561C59.9952 17.2103 58.6298 19.1648 56.6218 19.1648V19.1648Z" fill="#003138"/>
<path d="M88.1782 6.99219V16.0774C88.217 16.4799 88.1712 16.8861 88.0438 17.2698C87.9164 17.6536 87.7101 18.0065 87.4382 18.3058C87.1664 18.6052 86.8349 18.8443 86.4652 19.008C86.0954 19.1717 85.6955 19.2562 85.2911 19.2562C84.8868 19.2562 84.4869 19.1717 84.1171 19.008C83.7474 18.8443 83.4159 18.6052 83.1441 18.3058C82.8722 18.0065 82.6659 17.6536 82.5385 17.2698C82.4111 16.8861 82.3653 16.4799 82.4041 16.0774V6.99219H78.8789V16.0774C78.8789 19.8257 81.4402 22.869 85.1885 22.869C86.2581 22.8565 87.2994 22.5239 88.1782 21.9141V22.4942H91.748V6.99219H88.1782Z" fill="#003138"/>
<path d="M121.035 22.5294V13.3995C120.996 12.997 121.042 12.5909 121.169 12.2071C121.296 11.8233 121.503 11.4704 121.775 11.1711C122.046 10.8718 122.378 10.6326 122.748 10.4689C123.117 10.3052 123.517 10.2207 123.922 10.2207C124.326 10.2207 124.726 10.3052 125.096 10.4689C125.465 10.6326 125.797 10.8718 126.069 11.1711C126.341 11.4704 126.547 11.8233 126.674 12.2071C126.802 12.5909 126.848 12.997 126.809 13.3995V22.5294H130.334V13.3995C130.334 9.65119 127.773 6.60791 124.024 6.60791C122.954 6.62309 121.912 6.95882 121.035 7.57177V6.99167H117.465V22.5294H121.035Z" fill="#003138"/>
<path d="M39.4007 22.5296V16.5055H42.0066L46.5224 22.5296H51.1453L45.6835 15.265C46.8389 14.4425 47.7033 13.2742 48.1517 11.9286C48.6002 10.5831 48.6097 9.12984 48.1788 7.77855C47.7479 6.42727 46.8989 5.24778 45.7543 4.41025C44.6097 3.57272 43.2286 3.12044 41.8103 3.11865H35.7148V22.5296H39.4007ZM39.4007 6.80451H41.8103C42.6079 6.80451 43.3729 7.12138 43.9369 7.68541C44.501 8.24944 44.8178 9.01443 44.8178 9.81209C44.8178 10.6098 44.501 11.3747 43.9369 11.9388C43.3729 12.5028 42.6079 12.8197 41.8103 12.8197H39.4007V6.80451Z" fill="#003138"/>
<path d="M101.209 18.8525C100.863 19.094 100.452 19.2247 100.031 19.2273C99.7945 19.2187 99.5625 19.1618 99.349 19.0601C99.1355 18.9584 98.9452 18.814 98.7897 18.6359C98.6341 18.4578 98.5167 18.2497 98.4447 18.0245C98.3727 17.7993 98.3475 17.5617 98.3709 17.3264V10.7222H101.387V7.03635H98.3709V3.16309H94.8457V7.03635H92.9805V10.7222H94.8457V17.4246C94.8207 18.1337 94.9369 18.8408 95.1875 19.5046C95.4382 20.1685 95.8183 20.7759 96.3057 21.2915C96.7931 21.8072 97.3782 22.2208 98.0269 22.5084C98.6756 22.796 99.3749 22.9518 100.084 22.9667C101.3 22.9337 102.487 22.5961 103.538 21.985L101.209 18.8525Z" fill="#003138"/>
<path d="M72.2324 14.2744L78.2832 6.99192H73.339L69.1088 12.4002V1.8335H65.4766V22.5207H69.1088V16.1396L74.3118 22.5207H79.2471L72.2324 14.2744Z" fill="#003138"/>
<path d="M109.353 6.59912C105.275 6.59912 102.348 10.169 102.348 14.7562C102.348 19.5665 106.016 22.9222 109.701 22.9222C110.952 22.919 112.182 22.5979 113.275 21.9891C114.367 21.3802 115.288 20.5036 115.949 19.4416L112.834 17.6567C110.424 21.2265 106.408 19.4416 105.944 15.8718H116.1C116.975 10.2671 113.36 6.59912 109.353 6.59912ZM112.432 12.7571H106.078C106.819 9.11585 111.745 8.93736 112.432 12.7571Z" fill="#003138"/>
<path d="M141.687 21.1907L136.011 7.04526C135.932 6.85861 135.872 6.66419 135.833 6.46516C135.789 6.25677 135.768 6.04436 135.77 5.83152C135.763 5.55173 135.815 5.27357 135.923 5.01521C136.03 4.75686 136.191 4.52412 136.395 4.33218C136.82 3.93493 137.384 3.72024 137.966 3.73424C138.384 3.71927 138.791 3.87001 139.099 4.15369C139.469 4.55599 139.746 5.03421 139.911 5.55486L143.767 15.9609L147.488 5.70658C147.639 5.1346 147.927 4.60787 148.327 4.17155C148.674 3.86884 149.125 3.71215 149.585 3.73424C150.138 3.70585 150.679 3.89486 151.094 4.26078C151.28 4.44507 151.426 4.66672 151.522 4.91124C151.617 5.15576 151.66 5.41766 151.647 5.6798C151.645 5.92537 151.621 6.17027 151.575 6.41161C151.522 6.6604 151.45 6.90498 151.361 7.14344L145.864 21.0301C145.681 21.5453 145.374 22.0079 144.971 22.3777C144.606 22.6568 144.154 22.799 143.695 22.7793C143.266 22.8008 142.843 22.6714 142.499 22.4134C142.131 22.0799 141.852 21.6596 141.687 21.1907V21.1907Z" fill="#003138"/>
<path d="M156.661 19.9596C156.711 20.7012 156.547 21.4417 156.188 22.0925C156.028 22.3228 155.81 22.5073 155.556 22.6278C155.303 22.7483 155.022 22.8007 154.742 22.7797C154.457 22.7981 154.171 22.744 153.912 22.6223C153.653 22.5005 153.429 22.3152 153.261 22.0836C152.894 21.4387 152.726 20.6996 152.779 19.9596V12.1505C152.726 11.4105 152.894 10.6714 153.261 10.0265C153.428 9.79397 153.652 9.60851 153.911 9.4881C154.171 9.3677 154.457 9.31643 154.742 9.33929C155.022 9.31834 155.303 9.37069 155.556 9.4912C155.81 9.6117 156.028 9.79619 156.188 10.0265C156.547 10.674 156.712 11.4117 156.661 12.1505V19.9596Z" fill="#003138"/>
<path d="M162.535 9.4464C162.971 9.05723 163.477 8.75437 164.025 8.55394C164.598 8.34991 165.203 8.25016 165.81 8.25942C166.672 8.25089 167.525 8.43661 168.305 8.80278C169.085 9.16895 169.773 9.70617 170.317 10.3745C171.564 11.8501 172.219 13.7359 172.156 15.6668C172.199 17.5459 171.526 19.371 170.273 20.7717C169.733 21.4348 169.053 21.9696 168.281 22.337C167.509 22.7044 166.665 22.8952 165.81 22.8957C165.164 22.9022 164.524 22.7777 163.927 22.5298C163.362 22.3017 162.857 21.9441 162.455 21.4857C162.24 21.8847 161.935 22.2273 161.562 22.4852C161.242 22.7049 160.862 22.8202 160.474 22.8154C160.172 22.8343 159.87 22.7763 159.597 22.6467C159.324 22.5172 159.088 22.3203 158.912 22.0747C158.532 21.3825 158.358 20.5957 158.412 19.8078V6.74223C158.359 5.95159 158.533 5.1623 158.912 4.46648C159.1 4.23514 159.338 4.04866 159.607 3.92059C159.876 3.79252 160.171 3.72607 160.469 3.72607C160.767 3.72607 161.062 3.79252 161.331 3.92059C161.601 4.04866 161.838 4.23514 162.026 4.46648C162.421 5.1569 162.601 5.94909 162.544 6.74223L162.535 9.4464ZM162.214 15.5954C162.165 16.5745 162.458 17.54 163.044 18.3264C163.293 18.6555 163.616 18.9224 163.986 19.1061C164.356 19.2899 164.764 19.3855 165.177 19.3855C165.59 19.3855 165.997 19.2899 166.367 19.1061C166.737 18.9224 167.06 18.6555 167.31 18.3264C167.886 17.5553 168.182 16.6109 168.149 15.649C168.193 14.665 167.9 13.6953 167.319 12.9002C167.069 12.5694 166.746 12.301 166.375 12.1162C166.004 11.9314 165.596 11.8352 165.181 11.8352C164.767 11.8352 164.358 11.9314 163.987 12.1162C163.616 12.301 163.293 12.5694 163.044 12.9002C162.475 13.6811 162.183 14.6297 162.214 15.5954V15.5954Z" fill="#003138"/>
<path d="M176.77 16.7288C176.92 17.455 177.345 18.0948 177.957 18.5138C178.583 18.9743 179.349 19.2044 180.126 19.1653C181.027 19.1335 181.91 18.905 182.714 18.4959C183.273 18.1877 183.875 17.9622 184.499 17.8266C184.717 17.816 184.934 17.8501 185.138 17.9269C185.343 18.0036 185.529 18.1213 185.686 18.2728C185.84 18.4194 185.961 18.5971 186.041 18.794C186.121 18.991 186.158 19.2027 186.15 19.4151C186.15 20.3076 185.534 21.1019 184.293 21.8069C182.96 22.5466 181.454 22.9164 179.929 22.8779C178.981 22.9013 178.038 22.7287 177.16 22.3709C176.282 22.0131 175.486 21.4778 174.825 20.7984C174.149 20.1111 173.62 19.2943 173.269 18.397C172.918 17.4998 172.752 16.5407 172.781 15.5776C172.751 14.6149 172.911 13.6559 173.253 12.7554C173.594 11.8549 174.11 11.0306 174.771 10.3299C175.4 9.67537 176.152 9.15219 176.984 8.79073C177.817 8.42927 178.713 8.23673 179.62 8.22428C180.528 8.21182 181.429 8.3797 182.271 8.71818C183.113 9.05666 183.879 9.559 184.525 10.196C185.155 10.8317 185.65 11.5876 185.981 12.4186C186.312 13.2496 186.473 14.1388 186.453 15.0332C186.479 15.2677 186.455 15.505 186.383 15.7296C186.311 15.9542 186.192 16.161 186.034 16.3362C185.547 16.6337 184.976 16.7623 184.409 16.7021L176.77 16.7288ZM176.601 14.3192H182.678C182.648 13.5396 182.33 12.7989 181.786 12.2398C181.242 11.7322 180.521 11.4568 179.778 11.4723C179.026 11.4572 178.294 11.7139 177.716 12.1951C177.133 12.7598 176.743 13.4935 176.601 14.2924V14.3192Z" fill="#003138"/>
<path d="M187.581 19.7543V11.4545C187.524 10.6682 187.701 9.88277 188.089 9.19655C188.262 8.95009 188.496 8.75297 188.769 8.62464C189.041 8.4963 189.342 8.44119 189.642 8.46474C190.035 8.45763 190.421 8.56964 190.749 8.78602C191.122 9.03908 191.428 9.37904 191.641 9.77665C192.028 9.35291 192.487 9.00222 192.998 8.7414C193.445 8.5105 193.94 8.38821 194.443 8.38442C194.718 8.38117 194.991 8.43321 195.246 8.53746C195.5 8.64171 195.731 8.79604 195.925 8.99129C196.122 9.17688 196.278 9.4011 196.384 9.64989C196.49 9.89867 196.543 10.1667 196.541 10.4371C196.541 11.2581 195.782 11.9543 194.265 12.5076C193.721 12.7039 193.31 12.8646 193.042 12.9895C192.621 13.1543 192.26 13.4439 192.007 13.8195C191.793 14.3389 191.704 14.9015 191.748 15.4616V19.7543C191.805 20.5435 191.628 21.3318 191.24 22.0212C191.063 22.2668 190.827 22.4637 190.554 22.5932C190.281 22.7228 189.98 22.7808 189.678 22.7619C189.377 22.7854 189.075 22.7293 188.802 22.5993C188.53 22.4693 188.296 22.2699 188.125 22.0212C187.724 21.3356 187.535 20.5471 187.581 19.7543V19.7543Z" fill="#003138"/>
<path d="M152.653 5.88549C152.649 5.60059 152.704 5.31799 152.815 5.0554C152.925 4.7928 153.089 4.55585 153.295 4.35938C153.495 4.15566 153.734 3.99451 153.998 3.88561C154.262 3.77671 154.545 3.72233 154.83 3.72574C155.112 3.72232 155.391 3.7768 155.65 3.8858C155.91 3.99481 156.144 4.156 156.338 4.35938C156.542 4.55759 156.703 4.79507 156.812 5.0574C156.921 5.31973 156.975 5.60146 156.972 5.88549C156.973 6.16709 156.919 6.44615 156.812 6.70655C156.704 6.96695 156.547 7.20353 156.347 7.40266C156.148 7.60179 155.912 7.75952 155.651 7.86674C155.391 7.97397 155.112 8.02856 154.83 8.02738C154.544 8.03582 154.258 7.98466 153.993 7.87712C153.727 7.76958 153.486 7.60801 153.286 7.40266C153.081 7.20743 152.919 6.97177 152.81 6.7106C152.701 6.44944 152.647 6.16847 152.653 5.88549V5.88549Z" fill="#003138"/>
<path d="M25.2324 2.87748C24.5006 2.19921 21.5377 0.0483756 14.9425 0.0216018C14.9425 0.0216018 7.16035 -0.451392 3.34067 3.0292C1.22557 5.14432 0.484833 8.23222 0.404513 12.0609C0.324192 15.8895 0.226022 23.0649 7.1425 25.0104V27.9823C7.1425 27.9823 7.1425 29.1872 7.89216 29.4281C8.84708 29.7316 9.40932 28.8123 10.3285 27.8306C10.8283 27.2862 11.5244 26.4919 12.042 25.8851C14.9847 26.16 17.9525 25.9428 20.8237 25.2425C21.7787 24.9301 27.1869 24.2429 28.0704 17.0586C29.0075 9.66016 27.6599 4.98368 25.2324 2.87748ZM26.0356 16.5321C25.286 22.5205 20.9041 22.8953 20.1009 23.1541C17.6304 23.7631 15.08 23.9829 12.5418 23.8056C12.5418 23.8056 9.54319 27.3755 8.60611 28.3572C8.55399 28.4188 8.48796 28.4671 8.41347 28.4981C8.33899 28.5291 8.25818 28.542 8.17774 28.5357C8.0171 28.491 7.97248 28.3036 7.97248 28.027C7.97248 27.7503 7.97248 23.0917 7.97248 23.0917C2.11801 21.4585 2.45715 15.354 2.52854 12.159C2.59994 8.96404 3.19788 6.34021 4.98278 4.57315C8.18667 1.67266 14.7997 2.10103 14.7997 2.10103C20.3775 2.10103 23.0549 3.80563 23.6707 4.36788C25.7501 6.13495 26.7942 10.3473 26.0356 16.5321V16.5321Z" fill="#003138"/>
<path d="M17.6568 12.2663C17.5604 12.2664 17.4677 12.2294 17.3979 12.1629C17.3281 12.0964 17.2866 12.0056 17.282 11.9093C17.3055 11.6541 17.2737 11.3968 17.1888 11.1549C17.1039 10.9131 16.9679 10.6923 16.7901 10.5077C16.6123 10.3231 16.3968 10.179 16.1582 10.0851C15.9197 9.99125 15.6638 9.94985 15.4079 9.96374C15.3085 9.95782 15.2155 9.91266 15.1494 9.83819C15.0832 9.76371 15.0494 9.66602 15.0554 9.5666C15.0613 9.46719 15.1064 9.37421 15.1809 9.3081C15.2554 9.24199 15.3531 9.20816 15.4525 9.21408C15.8025 9.2033 16.151 9.26596 16.4753 9.39802C16.7997 9.53008 17.0928 9.72861 17.3358 9.98083C17.5787 10.2331 17.7662 10.5334 17.8861 10.8625C18.0059 11.1915 18.0555 11.542 18.0317 11.8915C18.0341 11.9407 18.0267 11.9899 18.0101 12.0363C17.9934 12.0827 17.9678 12.1254 17.9346 12.1619C17.9015 12.1983 17.8614 12.2279 17.8168 12.2489C17.7722 12.2699 17.7239 12.2818 17.6747 12.2841L17.6568 12.2663Z" fill="#003138"/>
<path d="M19.5743 12.9091C19.5251 12.9079 19.4765 12.897 19.4315 12.8771C19.3865 12.8572 19.3458 12.8286 19.3118 12.793C19.2778 12.7574 19.2512 12.7154 19.2335 12.6694C19.2157 12.6235 19.2072 12.5745 19.2084 12.5253C19.242 11.9523 19.1606 11.3784 18.9691 10.8373C18.7775 10.2963 18.4795 9.79906 18.0928 9.37493C17.2399 8.4915 16.072 7.98137 14.8443 7.95591C14.7909 7.95936 14.7373 7.95133 14.6873 7.93235C14.6372 7.91337 14.5918 7.88389 14.5541 7.84589C14.5164 7.80789 14.4872 7.76225 14.4686 7.71204C14.4501 7.66183 14.4424 7.60823 14.4463 7.55484C14.4501 7.50144 14.4654 7.44949 14.491 7.40248C14.5167 7.35547 14.552 7.31448 14.5948 7.2823C14.6376 7.25012 14.6868 7.22748 14.7391 7.2159C14.7913 7.20432 14.8455 7.20408 14.8979 7.21518C16.3152 7.25378 17.6609 7.84654 18.6461 8.86622C19.5422 9.86098 20.0075 11.1703 19.9402 12.5075C19.9452 12.5584 19.9394 12.6099 19.9233 12.6585C19.9072 12.7071 19.881 12.7517 19.8465 12.7896C19.812 12.8274 19.77 12.8576 19.7231 12.8782C19.6762 12.8988 19.6255 12.9093 19.5743 12.9091V12.9091Z" fill="#003138"/>
<path d="M21.53 13.676C21.4305 13.676 21.3352 13.6365 21.2649 13.5662C21.1946 13.4959 21.1551 13.4006 21.1551 13.3012C21.2075 12.3184 21.0562 11.3355 20.7107 10.414C20.3651 9.49249 19.8328 8.6524 19.1471 7.94644C18.4941 7.30861 17.7206 6.80727 16.8717 6.4717C16.0228 6.13612 15.1156 5.97303 14.203 5.99196C14.1035 5.99196 14.0082 5.95246 13.9379 5.88217C13.8676 5.81187 13.8281 5.71654 13.8281 5.61712C13.8281 5.51771 13.8676 5.42238 13.9379 5.35208C14.0082 5.28179 14.1035 5.24229 14.203 5.24229C15.2114 5.22532 16.2133 5.40821 17.1507 5.78043C18.0881 6.15265 18.9426 6.70681 19.6647 7.41096C20.415 8.18395 20.9998 9.10178 21.3834 10.1084C21.767 11.115 21.9414 12.1892 21.8959 13.2655C21.8959 13.3649 21.8564 13.4602 21.7861 13.5305C21.7158 13.6008 21.6204 13.6403 21.521 13.6403L21.53 13.676Z" fill="#003138"/>
<path d="M15.509 16.8888C15.6569 16.8998 15.8054 16.8783 15.9441 16.8259C16.0829 16.7735 16.2085 16.6914 16.3122 16.5853L16.8655 15.8892C17.0549 15.6807 17.3119 15.5458 17.5911 15.5083C17.8703 15.4707 18.1538 15.5329 18.3916 15.6839C18.8651 15.9571 19.3238 16.255 19.7659 16.5764C20.1854 16.8887 21.0332 17.5938 21.0332 17.6027C21.2329 17.7643 21.3661 17.9937 21.4073 18.2473C21.4484 18.5009 21.3947 18.7607 21.2563 18.9771V18.9771C20.9526 19.5047 20.567 19.9806 20.114 20.3872V20.3872C19.7871 20.6841 19.3809 20.8794 18.9449 20.9494C18.8888 20.9591 18.8314 20.9591 18.7753 20.9494C18.6089 20.9519 18.4432 20.9278 18.2845 20.878V20.878C17.1721 20.4935 16.1017 19.9971 15.0895 19.3966C14.1474 18.8797 13.2516 18.2825 12.4122 17.6116C11.9904 17.278 11.5882 16.9204 11.2074 16.5407V16.5407H11.1627C10.7853 16.1546 10.4279 15.7495 10.0918 15.327C9.42395 14.4853 8.82695 13.5898 8.30689 12.6496C7.70614 11.6388 7.21261 10.5679 6.83435 9.45457C6.78163 9.2932 6.75453 9.12456 6.75404 8.9548C6.74865 8.8984 6.74865 8.84162 6.75404 8.78523C6.82268 8.35143 7.01833 7.9477 7.31628 7.62503V7.62503C7.65957 7.10516 8.08448 6.64409 8.57463 6.25957V6.25957C8.79243 6.1206 9.05371 6.06654 9.30877 6.10768C9.56383 6.14882 9.79486 6.28229 9.95792 6.48268C9.95792 6.48268 10.6719 7.37514 10.9753 7.74997C11.2787 8.12481 11.6536 8.77631 11.8678 9.12437C12.0149 9.36557 12.074 9.6503 12.035 9.93015C11.9959 10.21 11.8612 10.4677 11.6536 10.6594L10.9575 11.2038C10.8512 11.3092 10.769 11.4364 10.7166 11.5766C10.6643 11.7168 10.6429 11.8667 10.654 12.0159C10.9941 13.1679 11.6162 14.2168 12.4639 15.0677C13.3117 15.9185 14.3583 16.5445 15.509 16.8888Z" fill="#003138"/>
</svg>
