<svg width="109" height="30" viewBox="0 0 109 32" fill="none" xmlns="http://www.w3.org/2000/svg">
<path d="M40.934 14.2913C40.934 15.2272 40.7534 16.0482 40.3922 16.7542C40.0309 17.4603 39.5383 18.0514 38.9144 18.5276C38.3069 19.0037 37.5926 19.365 36.7716 19.6113C35.9506 19.8411 35.0804 19.9561 34.1609 19.9561H29.9739V26.0396H28.0282V8.79892H34.4811C35.4498 8.79892 36.3283 8.93028 37.1164 9.19299C37.921 9.43929 38.6024 9.80052 39.1607 10.2767C39.7354 10.7364 40.1705 11.3111 40.466 12.0008C40.778 12.674 40.934 13.4375 40.934 14.2913ZM38.9636 14.3652C38.9636 13.1173 38.5367 12.1814 37.6829 11.5574C36.8455 10.9171 35.729 10.5969 34.3333 10.5969H29.9739V18.1827H34.2348C34.9408 18.1827 35.5812 18.0924 36.1559 17.9118C36.747 17.7312 37.2478 17.4767 37.6583 17.1483C38.0852 16.8035 38.4054 16.4012 38.6188 15.9415C38.8487 15.4653 38.9636 14.9399 38.9636 14.3652ZM50.9497 8.67577L58.8065 26.0396H56.713L54.6934 21.4831H45.3096L43.2653 26.0396H41.2704L49.1272 8.67577H50.9497ZM53.9299 19.7344L50.0138 10.9417L46.0731 19.7344H53.9299ZM63.372 13.1091C63.372 13.5196 63.4377 13.889 63.5691 14.2174C63.7004 14.5458 63.9385 14.8496 64.2833 15.1287C64.6281 15.3914 65.1043 15.6377 65.7118 15.8676C66.3194 16.081 67.0993 16.2863 68.0516 16.4833C69.9727 16.9102 71.3848 17.5013 72.2879 18.2566C73.2074 19.0119 73.6671 20.0546 73.6671 21.3846C73.6671 22.1235 73.5194 22.7967 73.2238 23.4042C72.9283 24.0117 72.5178 24.5289 71.9923 24.9559C71.4833 25.3828 70.8676 25.7112 70.1451 25.941C69.4227 26.1709 68.6345 26.2858 67.7807 26.2858C66.4015 26.2858 65.1371 26.0642 63.9878 25.6208C62.8548 25.1611 61.7711 24.4633 60.7367 23.5273L61.9435 22.0988C62.8466 22.9198 63.7579 23.5356 64.6774 23.946C65.5969 24.3401 66.656 24.5372 67.8546 24.5372C69.0204 24.5372 69.9481 24.2662 70.6377 23.7244C71.3438 23.1825 71.6968 22.4683 71.6968 21.5816C71.6968 21.1711 71.6311 20.8099 71.4998 20.4979C71.3684 20.1695 71.1385 19.874 70.8101 19.6113C70.4817 19.3485 70.022 19.1105 69.4309 18.897C68.8562 18.6835 68.1173 18.4783 67.2142 18.2813C66.229 18.0678 65.367 17.8215 64.6281 17.5424C63.9057 17.2632 63.3063 16.9266 62.8302 16.5326C62.354 16.1385 62.001 15.6788 61.7711 15.1533C61.5412 14.6279 61.4263 14.0039 61.4263 13.2815C61.4263 12.5919 61.5659 11.9597 61.845 11.385C62.1241 10.8103 62.5182 10.3177 63.0272 9.90725C63.5362 9.48034 64.1355 9.15194 64.8252 8.92207C65.5148 8.67577 66.2701 8.55263 67.0911 8.55263C68.3554 8.55263 69.4555 8.73324 70.3914 9.09447C71.3438 9.43929 72.2633 9.96472 73.1499 10.6708L72.017 12.1732C71.2124 11.5164 70.3996 11.0402 69.5787 10.7446C68.7741 10.4491 67.9285 10.3013 67.0418 10.3013C66.4836 10.3013 65.9745 10.3752 65.5148 10.523C65.0715 10.6708 64.6856 10.8678 64.3572 11.1141C64.0452 11.3604 63.7989 11.6559 63.6183 12.0008C63.4541 12.3456 63.372 12.715 63.372 13.1091ZM78.8857 13.1091C78.8857 13.5196 78.9514 13.889 79.0827 14.2174C79.2141 14.5458 79.4522 14.8496 79.797 15.1287C80.1418 15.3914 80.618 15.6377 81.2255 15.8676C81.833 16.081 82.613 16.2863 83.5653 16.4833C85.4864 16.9102 86.8985 17.5013 87.8016 18.2566C88.7211 19.0119 89.1808 20.0546 89.1808 21.3846C89.1808 22.1235 89.0331 22.7967 88.7375 23.4042C88.4419 24.0117 88.0315 24.5289 87.506 24.9559C86.997 25.3828 86.3813 25.7112 85.6588 25.941C84.9364 26.1709 84.1482 26.2858 83.2944 26.2858C81.9151 26.2858 80.6508 26.0642 79.5014 25.6208C78.3685 25.1611 77.2848 24.4633 76.2504 23.5273L77.4572 22.0988C78.3603 22.9198 79.2716 23.5356 80.1911 23.946C81.1106 24.3401 82.1696 24.5372 83.3683 24.5372C84.5341 24.5372 85.4618 24.2662 86.1514 23.7244C86.8575 23.1825 87.2105 22.4683 87.2105 21.5816C87.2105 21.1711 87.1448 20.8099 87.0134 20.4979C86.8821 20.1695 86.6522 19.874 86.3238 19.6113C85.9954 19.3485 85.5357 19.1105 84.9446 18.897C84.3699 18.6835 83.631 18.4783 82.7279 18.2813C81.7427 18.0678 80.8807 17.8215 80.1418 17.5424C79.4194 17.2632 78.82 16.9266 78.3439 16.5326C77.8677 16.1385 77.5147 15.6788 77.2848 15.1533C77.0549 14.6279 76.94 14.0039 76.94 13.2815C76.94 12.5919 77.0796 11.9597 77.3587 11.385C77.6378 10.8103 78.0319 10.3177 78.5409 9.90725C79.0499 9.48034 79.6492 9.15194 80.3389 8.92207C81.0285 8.67577 81.7838 8.55263 82.6048 8.55263C83.8691 8.55263 84.9692 8.73324 85.9051 9.09447C86.8575 9.43929 87.777 9.96472 88.6636 10.6708L87.5307 12.1732C86.7261 11.5164 85.9133 11.0402 85.0923 10.7446C84.2878 10.4491 83.4422 10.3013 82.5555 10.3013C81.9972 10.3013 81.4882 10.3752 81.0285 10.523C80.5851 10.6708 80.1993 10.8678 79.8709 11.1141C79.5589 11.3604 79.3126 11.6559 79.132 12.0008C78.9678 12.3456 78.8857 12.715 78.8857 13.1091ZM107.398 26.0396H105.009L100.009 19.3403H95.0832V26.0396H93.1375V8.79892H100.551C101.503 8.79892 102.357 8.92207 103.112 9.16836C103.884 9.41466 104.541 9.76768 105.083 10.2274C105.625 10.6708 106.043 11.2126 106.339 11.853C106.634 12.4769 106.782 13.1748 106.782 13.9465C106.782 14.6689 106.667 15.3175 106.437 15.8922C106.208 16.4505 105.879 16.9431 105.452 17.37C105.042 17.7805 104.549 18.1253 103.974 18.4044C103.4 18.6835 102.776 18.8806 102.103 18.9955L107.398 26.0396ZM104.812 14.0204C104.812 12.9367 104.426 12.0993 103.654 11.5082C102.883 10.9006 101.799 10.5969 100.403 10.5969H95.0832V17.5916H100.379C101.019 17.5916 101.61 17.5095 102.152 17.3453C102.694 17.1812 103.162 16.9513 103.556 16.6557C103.95 16.3437 104.254 15.9661 104.467 15.5228C104.697 15.0794 104.812 14.5786 104.812 14.0204Z" fill="#AEB2BA"/>
<path d="M0.25 17.2586L0.352233 29.1641H7.30089V21.0913L21.3004 12.8142V0.960449H14.2495V9.13543L0.25 17.2586Z" fill="#AEB2BA"/>
<path d="M0.25 17.2586V9.03324L14.2495 0.960449V9.13543L0.25 17.2586Z" fill="#AEB2BA"/>
<path d="M7.30078 29.1647V21.0919L14.3516 16.9243V25.1794L7.30078 29.1647Z" fill="#AEB2BA"/>
</svg>
